<?xml version="1.0" encoding="utf-8"?>
<!-- Generator: Adobe Illustrator 16.0.0, SVG Export Plug-In . SVG Version: 6.00 Build 0)  -->
<!DOCTYPE svg PUBLIC "-//W3C//DTD SVG 1.1//EN" "http://www.w3.org/Graphics/SVG/1.1/DTD/svg11.dtd">
<svg version="1.1" xmlns="http://www.w3.org/2000/svg" xmlns:xlink="http://www.w3.org/1999/xlink" x="0px" y="0px"
	 width="293.47px" height="95.543px" viewBox="0 0 293.47 95.543" enable-background="new 0 0 293.47 95.543" xml:space="preserve">
<g id="Capa_3" display="none">
	<rect y="1" display="inline" fill="#60DBE8" width="1920" height="1080"/>
</g>
<g id="Capa_1" display="none">
	<rect x="43.238" y="109.46" display="inline" fill="#FFFFFF" width="450.988" height="307.54"/>
	<rect y="1" display="inline" fill="#4D4D4D" width="1920" height="92.054"/>
	<rect x="43.238" y="428.765" display="inline" fill="#FFFFFF" width="450.988" height="304.494"/>
	<rect x="43.266" y="745" display="inline" fill="#FFFFFF" width="450.932" height="294.054"/>
	<rect x="971.987" y="430.895" display="inline" fill="#FFFFFF" width="436.717" height="304.493"/>
	<rect x="508.918" y="744" display="inline" fill="#FFFFFF" width="899.706" height="294.054"/>
	<rect x="507.923" y="429.098" display="inline" fill="#FFFFFF" width="452.217" height="302.823"/>
	<rect x="507.941" y="109.46" display="inline" fill="#FFFFFF" width="452.181" height="307.54"/>
	<rect x="972.001" y="110.612" display="inline" fill="#FFFFFF" width="436.682" height="307.54"/>
	<rect x="1433" y="106" display="inline" fill="#FFFFFF" width="436.682" height="774.54"/>
</g>
<g id="Capa_2" display="none">
	<rect x="507.923" y="429.818" display="inline" fill="#4D4D4D" width="452.217" height="289.554"/>
	<rect x="971.987" y="430.971" display="inline" fill="#4D4D4D" width="436.717" height="289.036"/>
	<rect x="43.238" y="429.312" display="inline" fill="#4D4D4D" width="450.988" height="286.848"/>
	<rect x="43.238" y="109.46" display="inline" fill="#4D4D4D" width="450.988" height="293.971"/>
	<rect x="507.923" y="109.46" display="inline" fill="#4D4D4D" width="452.217" height="292.309"/>
	<rect x="43.247" y="745" display="inline" fill="#4D4D4D" width="450.97" height="280"/>
	<rect x="971.983" y="110.612" display="inline" fill="#4D4D4D" width="436.717" height="292.925"/>
	<rect x="1432.982" y="106" display="inline" fill="#4D4D4D" width="436.717" height="162"/>
	<rect x="1432.982" y="900.967" display="inline" fill="#4D4D4D" width="436.717" height="137.111"/>
	<rect x="1432.982" y="900.967" display="inline" fill="#FFFFFF" width="307.978" height="123.549"/>
	<rect x="508.147" y="744" display="inline" fill="#4D4D4D" width="899.705" height="280"/>
	<g display="inline">
		<text transform="matrix(1 0 0 1 208.6074 373.3535)"><tspan x="0" y="0" fill="#60DBE8" font-family="'Lato-Light'" font-size="24">S</tspan><tspan x="12.54" y="0" fill="#FFFFFF" font-family="'Lato-Light'" font-size="24">ERVICIOS</tspan></text>
	</g>
	<g display="inline">
		<text transform="matrix(1 0 0 1 1142.4199 369.5747)"><tspan x="0" y="0" fill="#60DBE8" font-family="'Lato-Light'" font-size="24">E</tspan><tspan x="14.184" y="0" fill="#FFFFFF" font-family="'Lato-Light'" font-size="24">MPLEO</tspan></text>
	</g>
	<g display="inline">
		<text transform="matrix(1 0 0 1 657.856 371.0723)"><tspan x="0" y="0" fill="#60DBE8" font-family="'Lato-Light'" font-size="24">C</tspan><tspan x="16.884" y="0" fill="#FFFFFF" font-family="'Lato-Light'" font-size="24">OMUNIDAD</tspan></text>
	</g>
	<g display="inline">
		<text transform="matrix(1 0 0 1 1134.8457 693.5742)"><tspan x="0" y="0" fill="#60DBE8" font-family="'Lato-Light'" font-size="24">P</tspan><tspan x="14.244" y="0" fill="#FFFFFF" font-family="'Lato-Light'" font-size="24">ERDIDO </tspan></text>
	</g>
	<g display="inline">
		<text transform="matrix(1 0 0 1 689.8057 690.4229)"><tspan x="0" y="0" fill="#60DBE8" font-family="'Lato-Light'" font-size="24">V</tspan><tspan x="15.468" y="0" fill="#FFFFFF" font-family="'Lato-Light'" font-size="24">ENTAS</tspan></text>
	</g>
	<g display="inline">
		<text transform="matrix(1 0 0 1 224.4712 679.4229)"><tspan x="0" y="0" fill="#60DBE8" font-family="'Lato-Light'" font-size="24">C</tspan><tspan x="16.884" y="0" fill="#FFFFFF" font-family="'Lato-Light'" font-size="24">LASES </tspan></text>
	</g>
	<g display="inline">
		<text transform="matrix(1 0 0 1 215.6089 1003.4688)"><tspan x="0" y="0" fill="#60DBE8" font-family="'Lato-Light'" font-size="24">E</tspan><tspan x="14.184" y="0" fill="#FFFFFF" font-family="'Lato-Light'" font-size="24">VENTOS</tspan></text>
	</g>
	<g display="inline">
		<text transform="matrix(1 0 0 1 1456.9121 175.6133)"><tspan x="0" y="0" fill="#60DBE8" font-family="'Lato-Light'" font-size="60">M</tspan><tspan x="54.54" y="0" fill="#FFFFFF" font-family="'Lato-Light'" font-size="60">ÁS</tspan><tspan x="0" y="72" fill="#60DBE8" font-family="'Lato-Light'" font-size="60">R</tspan><tspan x="37.859" y="72" fill="#FFFFFF" font-family="'Lato-Light'" font-size="60">ECIENTES</tspan></text>
	</g>
	<g display="inline">
		<rect x="1457.046" y="308.577" fill="#4D4D4D" width="56.845" height="56.846"/>
		<g>
			<g>
				<circle fill="#299AE5" cx="1484.893" cy="323.86" r="8.202"/>
			</g>
			<g>
				
					<ellipse transform="matrix(-0.0306 0.9995 -0.9995 -0.0306 1853.2244 -1149.6764)" fill="#1E6E9B" cx="1484.133" cy="323.86" rx="7.425" ry="7.442"/>
			</g>
			<g>
				<circle fill="#299AE5" cx="1478.296" cy="323.86" r="5.171"/>
			</g>
		</g>
		<g>
			<path fill="#4D4D4D" d="M1798.5,337h-271c-0.828,0-1.5-0.671-1.5-1.5s0.672-1.5,1.5-1.5h271c0.828,0,1.5,0.671,1.5,1.5
				S1799.328,337,1798.5,337z"/>
		</g>
		<g>
			<line fill="#6BC9F2" x1="1529" y1="322" x2="1660" y2="322"/>
			<path fill="#6BC9F2" d="M1660,325h-131c-1.656,0-3-1.343-3-3s1.344-3,3-3h131c1.656,0,3,1.343,3,3S1661.656,325,1660,325z"/>
		</g>
		<g>
			<path fill="#4D4D4D" d="M1798.5,355h-271c-0.828,0-1.5-0.671-1.5-1.5s0.672-1.5,1.5-1.5h271c0.828,0,1.5,0.671,1.5,1.5
				S1799.328,355,1798.5,355z"/>
		</g>
	</g>
	<g display="inline">
		<rect x="1457.046" y="387.577" fill="#4D4D4D" width="56.845" height="56.846"/>
		<g>
			<g>
				<circle fill="#299AE5" cx="1484.893" cy="402.86" r="8.202"/>
			</g>
			<g>
				
					<ellipse transform="matrix(-0.0306 0.9995 -0.9995 -0.0306 1932.1875 -1068.2606)" fill="#1E6E9B" cx="1484.133" cy="402.86" rx="7.425" ry="7.442"/>
			</g>
			<g>
				<circle fill="#299AE5" cx="1478.296" cy="402.86" r="5.171"/>
			</g>
		</g>
		<g>
			<path fill="#4D4D4D" d="M1798.5,416h-271c-0.828,0-1.5-0.671-1.5-1.5s0.672-1.5,1.5-1.5h271c0.828,0,1.5,0.671,1.5,1.5
				S1799.328,416,1798.5,416z"/>
		</g>
		<g>
			<line fill="#6BC9F2" x1="1529" y1="401" x2="1660" y2="401"/>
			<path fill="#6BC9F2" d="M1660,404h-131c-1.656,0-3-1.343-3-3s1.344-3,3-3h131c1.656,0,3,1.343,3,3S1661.656,404,1660,404z"/>
		</g>
		<g>
			<path fill="#4D4D4D" d="M1798.5,434h-271c-0.828,0-1.5-0.671-1.5-1.5s0.672-1.5,1.5-1.5h271c0.828,0,1.5,0.671,1.5,1.5
				S1799.328,434,1798.5,434z"/>
		</g>
	</g>
	<g display="inline">
		<rect x="1457.046" y="466.577" fill="#4D4D4D" width="56.845" height="56.846"/>
		<g>
			<g>
				<circle fill="#299AE5" cx="1484.893" cy="481.86" r="8.202"/>
			</g>
			<g>
				
					<ellipse transform="matrix(-0.0306 0.9995 -0.9995 -0.0306 2011.1506 -986.845)" fill="#1E6E9B" cx="1484.133" cy="481.86" rx="7.425" ry="7.442"/>
			</g>
			<g>
				<circle fill="#299AE5" cx="1478.296" cy="481.86" r="5.171"/>
			</g>
		</g>
		<g>
			<path fill="#4D4D4D" d="M1798.5,495h-271c-0.828,0-1.5-0.671-1.5-1.5s0.672-1.5,1.5-1.5h271c0.828,0,1.5,0.671,1.5,1.5
				S1799.328,495,1798.5,495z"/>
		</g>
		<g>
			<line fill="#6BC9F2" x1="1529" y1="480" x2="1660" y2="480"/>
			<path fill="#6BC9F2" d="M1660,483h-131c-1.656,0-3-1.343-3-3s1.344-3,3-3h131c1.656,0,3,1.343,3,3S1661.656,483,1660,483z"/>
		</g>
		<g>
			<path fill="#4D4D4D" d="M1798.5,513h-271c-0.828,0-1.5-0.671-1.5-1.5s0.672-1.5,1.5-1.5h271c0.828,0,1.5,0.671,1.5,1.5
				S1799.328,513,1798.5,513z"/>
		</g>
	</g>
	<g display="inline">
		<rect x="1457.046" y="545.577" fill="#4D4D4D" width="56.845" height="56.846"/>
		<g>
			<g>
				<circle fill="#299AE5" cx="1484.893" cy="560.86" r="8.202"/>
			</g>
			<g>
				
					<ellipse transform="matrix(-0.0306 0.9995 -0.9995 -0.0306 2090.1155 -905.4283)" fill="#1E6E9B" cx="1484.133" cy="560.86" rx="7.425" ry="7.442"/>
			</g>
			<g>
				<circle fill="#299AE5" cx="1478.296" cy="560.859" r="5.171"/>
			</g>
		</g>
		<g>
			<path fill="#4D4D4D" d="M1798.5,574h-271c-0.828,0-1.5-0.672-1.5-1.5s0.672-1.5,1.5-1.5h271c0.828,0,1.5,0.672,1.5,1.5
				S1799.328,574,1798.5,574z"/>
		</g>
		<g>
			<line fill="#6BC9F2" x1="1529" y1="559" x2="1660" y2="559"/>
			<path fill="#6BC9F2" d="M1660,562h-131c-1.656,0-3-1.344-3-3s1.344-3,3-3h131c1.656,0,3,1.344,3,3S1661.656,562,1660,562z"/>
		</g>
		<g>
			<path fill="#4D4D4D" d="M1798.5,592h-271c-0.828,0-1.5-0.672-1.5-1.5s0.672-1.5,1.5-1.5h271c0.828,0,1.5,0.672,1.5,1.5
				S1799.328,592,1798.5,592z"/>
		</g>
	</g>
	<g display="inline">
		<rect x="1457.046" y="621.577" fill="#4D4D4D" width="56.845" height="56.846"/>
		<g>
			<g>
				<circle fill="#299AE5" cx="1484.893" cy="636.86" r="8.202"/>
			</g>
			<g>
				
					<ellipse transform="matrix(-0.0306 0.9995 -0.9995 -0.0306 2166.0798 -827.1042)" fill="#1E6E9B" cx="1484.133" cy="636.86" rx="7.425" ry="7.442"/>
			</g>
			<g>
				<circle fill="#299AE5" cx="1478.296" cy="636.859" r="5.171"/>
			</g>
		</g>
		<g>
			<path fill="#4D4D4D" d="M1798.5,650h-271c-0.828,0-1.5-0.672-1.5-1.5s0.672-1.5,1.5-1.5h271c0.828,0,1.5,0.672,1.5,1.5
				S1799.328,650,1798.5,650z"/>
		</g>
		<g>
			<line fill="#6BC9F2" x1="1529" y1="635" x2="1660" y2="635"/>
			<path fill="#6BC9F2" d="M1660,638h-131c-1.656,0-3-1.344-3-3s1.344-3,3-3h131c1.656,0,3,1.344,3,3S1661.656,638,1660,638z"/>
		</g>
		<g>
			<path fill="#4D4D4D" d="M1798.5,668h-271c-0.828,0-1.5-0.672-1.5-1.5s0.672-1.5,1.5-1.5h271c0.828,0,1.5,0.672,1.5,1.5
				S1799.328,668,1798.5,668z"/>
		</g>
	</g>
	<g display="inline">
		<rect x="1457.046" y="702.577" fill="#4D4D4D" width="56.845" height="56.846"/>
		<g>
			<g>
				<circle fill="#299AE5" cx="1484.893" cy="717.86" r="8.202"/>
			</g>
			<g>
				
					<ellipse transform="matrix(-0.0306 0.9995 -0.9995 -0.0306 2247.042 -743.6273)" fill="#1E6E9B" cx="1484.133" cy="717.86" rx="7.425" ry="7.442"/>
			</g>
			<g>
				<circle fill="#299AE5" cx="1478.296" cy="717.859" r="5.171"/>
			</g>
		</g>
		<g>
			<path fill="#4D4D4D" d="M1798.5,731h-271c-0.828,0-1.5-0.672-1.5-1.5s0.672-1.5,1.5-1.5h271c0.828,0,1.5,0.672,1.5,1.5
				S1799.328,731,1798.5,731z"/>
		</g>
		<g>
			<line fill="#6BC9F2" x1="1529" y1="716" x2="1660" y2="716"/>
			<path fill="#6BC9F2" d="M1660,719h-131c-1.656,0-3-1.344-3-3s1.344-3,3-3h131c1.656,0,3,1.344,3,3S1661.656,719,1660,719z"/>
		</g>
		<g>
			<path fill="#4D4D4D" d="M1798.5,749h-271c-0.828,0-1.5-0.672-1.5-1.5s0.672-1.5,1.5-1.5h271c0.828,0,1.5,0.672,1.5,1.5
				S1799.328,749,1798.5,749z"/>
		</g>
	</g>
	<g display="inline">
		<rect x="1457.046" y="782.577" fill="#4D4D4D" width="56.845" height="56.846"/>
		<g>
			<g>
				<circle fill="#299AE5" cx="1484.893" cy="797.86" r="8.202"/>
			</g>
			<g>
				
					<ellipse transform="matrix(-0.0306 0.9995 -0.9995 -0.0306 2327.0046 -661.1809)" fill="#1E6E9B" cx="1484.133" cy="797.86" rx="7.425" ry="7.442"/>
			</g>
			<g>
				<circle fill="#299AE5" cx="1478.296" cy="797.859" r="5.171"/>
			</g>
		</g>
		<g>
			<path fill="#4D4D4D" d="M1798.5,811h-271c-0.828,0-1.5-0.672-1.5-1.5s0.672-1.5,1.5-1.5h271c0.828,0,1.5,0.672,1.5,1.5
				S1799.328,811,1798.5,811z"/>
		</g>
		<g>
			<line fill="#6BC9F2" x1="1529" y1="796" x2="1660" y2="796"/>
			<path fill="#6BC9F2" d="M1660,799h-131c-1.656,0-3-1.344-3-3s1.344-3,3-3h131c1.656,0,3,1.344,3,3S1661.656,799,1660,799z"/>
		</g>
		<g>
			<path fill="#4D4D4D" d="M1798.5,829h-271c-0.828,0-1.5-0.672-1.5-1.5s0.672-1.5,1.5-1.5h271c0.828,0,1.5,0.672,1.5,1.5
				S1799.328,829,1798.5,829z"/>
		</g>
	</g>
	<line display="inline" fill="none" x1="1787.074" y1="979.534" x2="1752.391" y2="1014.218"/>
	<g display="inline">
		<path fill="none" stroke="#60DBE8" stroke-width="2" stroke-miterlimit="10" d="M1818.432,987.97L1818.432,987.97
			c-16.154,0-29.249-13.095-29.249-29.248l0,0c0-16.153,13.095-29.249,29.249-29.249l0,0c16.153,0,29.248,13.096,29.248,29.249l0,0
			C1847.68,974.875,1834.585,987.97,1818.432,987.97z"/>
		
			<line fill="none" stroke="#60DBE8" stroke-width="2" stroke-miterlimit="10" x1="1797.658" y1="979.308" x2="1763.627" y2="1013.339"/>
	</g>
	
		<path display="inline" fill="none" stroke="#60DBE8" stroke-width="2" stroke-linecap="round" stroke-linejoin="round" stroke-miterlimit="10" d="
		M1796.601,958.722c0-12.057,9.774-21.83,21.831-21.83"/>
	
		<text transform="matrix(1 0 0 1 829.0791 1004.8066)" display="inline" fill="#60DBE8" font-family="'Lato-Light'" font-size="48.3814" letter-spacing="4">PUBLICAR</text>
</g>
<g id="Capa_6">
	<g>
		<path fill="#FFFFFF" d="M173.034,18.363v9.485h-14.511v42.118H146.56V27.848h-14.511v-9.485H173.034z"/>
		<path fill="#60DBE8" d="M225.63,69.86h-9.273c-1.039,0-1.894-0.241-2.566-0.726c-0.672-0.483-1.139-1.103-1.398-1.858l-3.044-8.99
			h-19.608l-3.044,8.99c-0.237,0.662-0.697,1.256-1.38,1.788c-0.685,0.531-1.522,0.796-2.513,0.796h-9.344l19.962-51.604h12.246
			L225.63,69.86z M192.501,50.139h14.086l-4.743-13.915c-0.308-0.883-0.667-1.923-1.08-3.121c-0.414-1.197-0.82-2.493-1.221-3.889
			c-0.378,1.418-0.768,2.732-1.168,3.941c-0.402,1.21-0.779,2.256-1.133,3.139L192.501,50.139z"/>
		<path fill="#FFFFFF" d="M281.905,44.146c0,3.731-0.644,7.172-1.929,10.324c-1.287,3.152-3.097,5.879-5.433,8.183
			c-2.336,2.303-5.15,4.097-8.441,5.383c-3.292,1.288-6.943,1.93-10.954,1.93h-20.033V18.363h20.033
			c4.011,0,7.663,0.649,10.954,1.947c3.292,1.299,6.105,3.094,8.441,5.384c2.336,2.291,4.146,5.012,5.433,8.164
			C281.262,37.011,281.905,40.44,281.905,44.146z M269.659,44.146c0-2.55-0.331-4.854-0.991-6.909
			c-0.662-2.055-1.61-3.797-2.849-5.226c-1.239-1.429-2.755-2.527-4.548-3.295c-1.794-0.768-3.834-1.151-6.123-1.151h-7.999v33.199
			h7.999c2.289,0,4.329-0.384,6.123-1.151c1.793-0.768,3.309-1.866,4.548-3.295c1.239-1.429,2.188-3.171,2.849-5.226
			C269.329,49.037,269.659,46.722,269.659,44.146z"/>
		<path fill="#60DBE8" d="M142.94,75.134v0.871h-2.475v6.788h-1.037v-6.788h-2.485v-0.871H142.94z"/>
		<path fill="#60DBE8" d="M147.055,82.793h-0.422c-0.093,0-0.167-0.014-0.225-0.043c-0.057-0.028-0.094-0.089-0.112-0.182
			l-0.107-0.502c-0.143,0.128-0.281,0.243-0.417,0.345c-0.136,0.102-0.278,0.187-0.428,0.257c-0.149,0.069-0.309,0.122-0.479,0.158
			c-0.169,0.035-0.357,0.053-0.563,0.053c-0.21,0-0.407-0.03-0.591-0.088c-0.184-0.059-0.343-0.147-0.478-0.266
			c-0.136-0.118-0.243-0.267-0.324-0.448c-0.08-0.181-0.12-0.394-0.12-0.641c0-0.215,0.059-0.421,0.176-0.62
			c0.118-0.198,0.308-0.375,0.569-0.528s0.605-0.28,1.029-0.378s0.942-0.147,1.555-0.147v-0.425c0-0.423-0.09-0.743-0.27-0.96
			c-0.18-0.217-0.446-0.326-0.799-0.326c-0.231,0-0.427,0.03-0.585,0.088c-0.159,0.059-0.296,0.125-0.412,0.198
			c-0.116,0.073-0.216,0.139-0.299,0.198c-0.084,0.059-0.167,0.088-0.249,0.088c-0.064,0-0.12-0.017-0.168-0.051
			c-0.048-0.034-0.086-0.076-0.115-0.126l-0.171-0.305c0.299-0.289,0.622-0.504,0.968-0.646c0.345-0.143,0.729-0.214,1.149-0.214
			c0.303,0,0.572,0.05,0.807,0.15c0.235,0.1,0.433,0.239,0.593,0.417c0.161,0.178,0.282,0.394,0.364,0.647s0.123,0.531,0.123,0.833
			V82.793z M144.586,82.21c0.167,0,0.32-0.017,0.459-0.051c0.139-0.034,0.27-0.082,0.393-0.145c0.123-0.062,0.24-0.138,0.353-0.227
			s0.222-0.19,0.329-0.305v-1.117c-0.438,0-0.811,0.028-1.117,0.083c-0.307,0.056-0.556,0.128-0.749,0.218
			c-0.192,0.09-0.332,0.195-0.419,0.317s-0.131,0.258-0.131,0.408c0,0.144,0.023,0.267,0.069,0.371s0.109,0.189,0.187,0.255
			c0.079,0.066,0.171,0.115,0.278,0.145C144.345,82.195,144.461,82.21,144.586,82.21z"/>
		<path fill="#60DBE8" d="M149.064,82.793V74.92h0.957v3.239c0.225-0.26,0.482-0.469,0.772-0.628
			c0.29-0.158,0.623-0.238,0.997-0.238c0.313,0,0.597,0.059,0.85,0.176c0.253,0.118,0.469,0.293,0.647,0.526
			s0.315,0.522,0.412,0.866c0.096,0.344,0.144,0.74,0.144,1.189c0,0.399-0.054,0.771-0.16,1.114
			c-0.107,0.344-0.261,0.642-0.462,0.893c-0.202,0.251-0.447,0.449-0.738,0.593c-0.29,0.144-0.617,0.216-0.98,0.216
			c-0.349,0-0.646-0.068-0.89-0.203c-0.244-0.135-0.457-0.324-0.639-0.566l-0.048,0.492c-0.028,0.135-0.11,0.203-0.246,0.203
			H149.064z M151.48,78.052c-0.31,0-0.582,0.071-0.815,0.214s-0.448,0.344-0.644,0.604v2.619c0.171,0.235,0.361,0.401,0.569,0.497
			s0.441,0.145,0.697,0.145c0.506,0,0.895-0.18,1.165-0.54c0.271-0.36,0.406-0.873,0.406-1.539c0-0.353-0.031-0.656-0.093-0.909
			c-0.063-0.253-0.152-0.46-0.27-0.623s-0.262-0.281-0.433-0.355S151.697,78.052,151.48,78.052z"/>
		<path fill="#60DBE8" d="M156.6,74.92v7.873h-0.952V74.92H156.6z"/>
		<path fill="#60DBE8" d="M160.956,77.293c0.324,0,0.624,0.054,0.898,0.163s0.511,0.265,0.711,0.47
			c0.199,0.205,0.355,0.458,0.467,0.759c0.112,0.301,0.168,0.644,0.168,1.029c0,0.15-0.016,0.25-0.048,0.299
			c-0.032,0.05-0.093,0.075-0.182,0.075h-3.602c0.007,0.342,0.054,0.64,0.139,0.893s0.203,0.464,0.353,0.633
			c0.15,0.169,0.328,0.296,0.535,0.38c0.207,0.083,0.438,0.125,0.694,0.125c0.239,0,0.445-0.028,0.618-0.083
			s0.321-0.115,0.446-0.179c0.125-0.064,0.229-0.124,0.313-0.179c0.084-0.055,0.156-0.083,0.216-0.083
			c0.079,0,0.139,0.03,0.182,0.091l0.268,0.348c-0.118,0.143-0.258,0.266-0.422,0.371c-0.164,0.105-0.339,0.192-0.526,0.259
			c-0.187,0.068-0.38,0.119-0.58,0.152c-0.199,0.034-0.397,0.051-0.593,0.051c-0.374,0-0.719-0.063-1.034-0.189
			c-0.315-0.126-0.588-0.312-0.818-0.556c-0.23-0.244-0.409-0.546-0.537-0.906c-0.128-0.36-0.192-0.773-0.192-1.24
			c0-0.378,0.058-0.73,0.174-1.059c0.116-0.328,0.282-0.612,0.5-0.852c0.217-0.241,0.483-0.43,0.796-0.567
			C160.211,77.362,160.563,77.293,160.956,77.293z M160.977,77.994c-0.46,0-0.821,0.133-1.085,0.398
			c-0.264,0.266-0.428,0.633-0.492,1.104h2.945c0-0.221-0.03-0.423-0.091-0.607c-0.061-0.183-0.15-0.342-0.268-0.476
			c-0.117-0.134-0.261-0.237-0.43-0.31C161.388,78.03,161.194,77.994,160.977,77.994z"/>
		<path fill="#60DBE8" d="M164.948,82.793v-5.414h0.545c0.104,0,0.175,0.02,0.214,0.059c0.039,0.039,0.066,0.107,0.08,0.203
			l0.064,0.844c0.185-0.377,0.414-0.672,0.687-0.885c0.272-0.212,0.592-0.318,0.959-0.318c0.149,0,0.285,0.017,0.406,0.051
			c0.121,0.034,0.233,0.081,0.336,0.142l-0.123,0.711c-0.025,0.089-0.081,0.134-0.166,0.134c-0.05,0-0.126-0.017-0.23-0.051
			c-0.103-0.034-0.248-0.05-0.433-0.05c-0.332,0-0.608,0.096-0.831,0.289s-0.409,0.472-0.559,0.839v3.447H164.948z"/>
		<path fill="#60DBE8" d="M171.981,77.293c0.396,0,0.752,0.066,1.072,0.198c0.318,0.132,0.589,0.319,0.812,0.561
			c0.223,0.243,0.394,0.536,0.513,0.879c0.119,0.344,0.179,0.728,0.179,1.152c0,0.427-0.06,0.812-0.179,1.154
			c-0.12,0.342-0.291,0.634-0.513,0.876s-0.494,0.428-0.812,0.558c-0.319,0.13-0.676,0.195-1.072,0.195s-0.753-0.065-1.072-0.195
			c-0.319-0.13-0.59-0.316-0.815-0.558s-0.397-0.535-0.519-0.876c-0.121-0.342-0.182-0.727-0.182-1.154
			c0-0.424,0.061-0.808,0.182-1.152s0.294-0.637,0.519-0.879c0.225-0.242,0.496-0.429,0.815-0.561S171.585,77.293,171.981,77.293z
			 M171.981,82.125c0.535,0,0.933-0.179,1.197-0.537c0.264-0.358,0.396-0.858,0.396-1.5c0-0.645-0.132-1.147-0.396-1.507
			c-0.264-0.36-0.663-0.54-1.197-0.54c-0.271,0-0.506,0.046-0.706,0.139s-0.366,0.226-0.5,0.401
			c-0.134,0.174-0.233,0.389-0.299,0.644s-0.099,0.542-0.099,0.863c0,0.321,0.033,0.608,0.099,0.861s0.166,0.466,0.299,0.639
			c0.133,0.173,0.3,0.305,0.5,0.398S171.71,82.125,171.981,82.125z"/>
		<path fill="#60DBE8" d="M182.675,82.793c-0.135,0-0.221-0.066-0.256-0.198l-0.085-0.657c-0.232,0.281-0.496,0.507-0.794,0.676
			c-0.297,0.169-0.638,0.254-1.023,0.254c-0.31,0-0.592-0.06-0.845-0.179c-0.253-0.119-0.468-0.294-0.646-0.526
			c-0.178-0.231-0.315-0.52-0.412-0.866s-0.145-0.743-0.145-1.192c0-0.399,0.054-0.771,0.161-1.114s0.261-0.642,0.462-0.895
			c0.201-0.253,0.446-0.452,0.735-0.596c0.289-0.144,0.616-0.216,0.983-0.216c0.332,0,0.615,0.056,0.85,0.168
			c0.235,0.112,0.445,0.27,0.631,0.473V74.92h0.951v7.873H182.675z M180.831,82.098c0.31,0,0.582-0.071,0.815-0.214
			s0.448-0.344,0.645-0.604v-2.619c-0.175-0.235-0.366-0.4-0.575-0.494c-0.208-0.095-0.439-0.142-0.692-0.142
			c-0.506,0-0.894,0.18-1.165,0.54c-0.271,0.36-0.406,0.873-0.406,1.539c0,0.353,0.03,0.655,0.091,0.906
			c0.061,0.251,0.15,0.458,0.268,0.62s0.262,0.281,0.433,0.355S180.61,82.098,180.831,82.098z"/>
		<path fill="#60DBE8" d="M187.517,77.293c0.324,0,0.624,0.054,0.898,0.163c0.274,0.109,0.511,0.265,0.71,0.47
			s0.355,0.458,0.468,0.759c0.112,0.301,0.168,0.644,0.168,1.029c0,0.15-0.016,0.25-0.048,0.299
			c-0.032,0.05-0.093,0.075-0.182,0.075h-3.602c0.007,0.342,0.053,0.64,0.139,0.893c0.086,0.253,0.203,0.464,0.353,0.633
			c0.149,0.169,0.328,0.296,0.534,0.38c0.207,0.083,0.438,0.125,0.695,0.125c0.239,0,0.444-0.028,0.617-0.083
			s0.322-0.115,0.446-0.179c0.125-0.064,0.229-0.124,0.313-0.179c0.083-0.055,0.156-0.083,0.216-0.083
			c0.078,0,0.139,0.03,0.182,0.091l0.267,0.348c-0.117,0.143-0.258,0.266-0.422,0.371c-0.164,0.105-0.339,0.192-0.526,0.259
			c-0.187,0.068-0.38,0.119-0.58,0.152s-0.397,0.051-0.593,0.051c-0.374,0-0.719-0.063-1.034-0.189
			c-0.315-0.126-0.588-0.312-0.818-0.556c-0.229-0.244-0.409-0.546-0.537-0.906c-0.128-0.36-0.192-0.773-0.192-1.24
			c0-0.378,0.058-0.73,0.173-1.059c0.116-0.328,0.283-0.612,0.5-0.852c0.217-0.241,0.482-0.43,0.796-0.567
			C186.772,77.362,187.125,77.293,187.517,77.293z M187.538,77.994c-0.459,0-0.821,0.133-1.084,0.398
			c-0.264,0.266-0.428,0.633-0.492,1.104h2.944c0-0.221-0.03-0.423-0.091-0.607c-0.061-0.183-0.149-0.342-0.267-0.476
			s-0.261-0.237-0.43-0.31C187.949,78.03,187.755,77.994,187.538,77.994z"/>
		<path fill="#60DBE8" d="M200.557,82.793h-0.802c-0.093,0-0.167-0.023-0.225-0.069c-0.057-0.046-0.1-0.105-0.128-0.177
			l-0.716-1.849h-3.437l-0.716,1.849c-0.025,0.064-0.067,0.121-0.128,0.171c-0.061,0.05-0.136,0.075-0.225,0.075h-0.802l3.063-7.659
			h1.053L200.557,82.793z M195.539,79.95h2.859l-1.203-3.116c-0.078-0.192-0.155-0.433-0.229-0.722
			c-0.04,0.146-0.078,0.281-0.115,0.404c-0.037,0.123-0.074,0.23-0.109,0.323L195.539,79.95z"/>
		<path fill="#60DBE8" d="M201.909,82.793v-5.414h0.566c0.135,0,0.221,0.066,0.257,0.198l0.075,0.588
			c0.235-0.26,0.498-0.47,0.788-0.63c0.291-0.161,0.626-0.241,1.007-0.241c0.296,0,0.557,0.049,0.783,0.147
			c0.226,0.098,0.415,0.237,0.566,0.417c0.151,0.18,0.266,0.396,0.345,0.649c0.078,0.253,0.118,0.533,0.118,0.839v3.447h-0.952
			v-3.447c0-0.41-0.093-0.728-0.28-0.954c-0.187-0.226-0.473-0.339-0.858-0.339c-0.282,0-0.544,0.068-0.788,0.203
			c-0.244,0.136-0.47,0.319-0.676,0.55v3.987H201.909z"/>
		<path fill="#60DBE8" d="M209.209,77.379v3.453c0,0.41,0.095,0.727,0.283,0.951c0.189,0.225,0.474,0.337,0.855,0.337
			c0.278,0,0.54-0.066,0.786-0.198c0.246-0.132,0.472-0.315,0.679-0.551v-3.992h0.951v5.414h-0.566
			c-0.136,0-0.221-0.066-0.257-0.198l-0.075-0.583c-0.235,0.26-0.499,0.469-0.791,0.628s-0.627,0.238-1.004,0.238
			c-0.296,0-0.557-0.049-0.783-0.147c-0.227-0.098-0.416-0.236-0.569-0.414s-0.268-0.394-0.345-0.647
			c-0.077-0.253-0.115-0.532-0.115-0.839v-3.453H209.209z"/>
		<path fill="#60DBE8" d="M214.864,82.793v-5.414h0.566c0.135,0,0.221,0.066,0.256,0.198l0.075,0.588
			c0.235-0.26,0.498-0.47,0.789-0.63c0.29-0.161,0.626-0.241,1.007-0.241c0.296,0,0.557,0.049,0.783,0.147
			c0.226,0.098,0.415,0.237,0.566,0.417c0.151,0.18,0.266,0.396,0.345,0.649c0.078,0.253,0.118,0.533,0.118,0.839v3.447h-0.952
			v-3.447c0-0.41-0.093-0.728-0.28-0.954c-0.188-0.226-0.473-0.339-0.858-0.339c-0.282,0-0.544,0.068-0.789,0.203
			c-0.244,0.136-0.469,0.319-0.676,0.55v3.987H214.864z"/>
		<path fill="#60DBE8" d="M225.034,78.341c-0.028,0.04-0.057,0.07-0.085,0.091c-0.028,0.021-0.069,0.032-0.123,0.032
			c-0.054,0-0.111-0.022-0.174-0.067c-0.063-0.044-0.142-0.093-0.238-0.147c-0.096-0.053-0.213-0.102-0.35-0.147
			c-0.137-0.044-0.306-0.067-0.505-0.067c-0.264,0-0.497,0.047-0.7,0.142c-0.203,0.094-0.374,0.23-0.51,0.409
			c-0.138,0.178-0.241,0.394-0.31,0.646c-0.07,0.253-0.104,0.537-0.104,0.85c0,0.328,0.038,0.619,0.112,0.874
			c0.075,0.255,0.18,0.469,0.315,0.642c0.135,0.173,0.3,0.305,0.494,0.396c0.194,0.091,0.413,0.136,0.655,0.136
			c0.231,0,0.422-0.028,0.572-0.083c0.15-0.055,0.274-0.117,0.374-0.185c0.1-0.067,0.182-0.129,0.246-0.184
			c0.064-0.055,0.128-0.083,0.192-0.083c0.082,0,0.143,0.03,0.182,0.091l0.267,0.348c-0.235,0.289-0.529,0.5-0.882,0.633
			c-0.353,0.133-0.725,0.2-1.117,0.2c-0.339,0-0.653-0.063-0.943-0.187c-0.291-0.125-0.542-0.306-0.756-0.542
			s-0.382-0.528-0.505-0.874c-0.123-0.345-0.185-0.739-0.185-1.181c0-0.403,0.056-0.775,0.168-1.117
			c0.112-0.342,0.276-0.637,0.492-0.884c0.215-0.248,0.482-0.441,0.799-0.58c0.317-0.139,0.681-0.208,1.09-0.208
			c0.377,0,0.712,0.062,1.005,0.185c0.292,0.123,0.55,0.296,0.775,0.521L225.034,78.341z"/>
		<path fill="#60DBE8" d="M228.14,75.68c0,0.092-0.019,0.179-0.056,0.259c-0.038,0.08-0.087,0.152-0.15,0.214
			c-0.062,0.063-0.134,0.111-0.216,0.147s-0.169,0.054-0.262,0.054c-0.093,0-0.179-0.018-0.259-0.054s-0.151-0.084-0.214-0.147
			c-0.063-0.062-0.111-0.134-0.147-0.214s-0.053-0.167-0.053-0.259c0-0.093,0.018-0.181,0.053-0.265
			c0.036-0.084,0.084-0.157,0.147-0.219s0.134-0.111,0.214-0.147s0.167-0.053,0.259-0.053c0.092,0,0.18,0.018,0.262,0.053
			s0.154,0.084,0.216,0.147c0.063,0.063,0.112,0.135,0.15,0.219C228.121,75.499,228.14,75.587,228.14,75.68z M227.926,77.379v5.414
			h-0.951v-5.414H227.926z"/>
		<path fill="#60DBE8" d="M232.33,77.293c0.396,0,0.752,0.066,1.071,0.198s0.59,0.319,0.813,0.561
			c0.223,0.243,0.394,0.536,0.513,0.879c0.119,0.344,0.179,0.728,0.179,1.152c0,0.427-0.06,0.812-0.179,1.154
			c-0.12,0.342-0.291,0.634-0.513,0.876s-0.494,0.428-0.813,0.558c-0.319,0.13-0.676,0.195-1.071,0.195s-0.753-0.065-1.072-0.195
			c-0.319-0.13-0.59-0.316-0.815-0.558s-0.397-0.535-0.519-0.876c-0.121-0.342-0.182-0.727-0.182-1.154
			c0-0.424,0.061-0.808,0.182-1.152s0.294-0.637,0.519-0.879c0.225-0.242,0.496-0.429,0.815-0.561S231.934,77.293,232.33,77.293z
			 M232.33,82.125c0.534,0,0.933-0.179,1.197-0.537c0.264-0.358,0.396-0.858,0.396-1.5c0-0.645-0.132-1.147-0.396-1.507
			s-0.663-0.54-1.197-0.54c-0.271,0-0.506,0.046-0.706,0.139s-0.366,0.226-0.5,0.401c-0.134,0.174-0.233,0.389-0.299,0.644
			c-0.066,0.255-0.099,0.542-0.099,0.863c0,0.321,0.033,0.608,0.099,0.861c0.066,0.253,0.166,0.466,0.299,0.639
			c0.133,0.173,0.3,0.305,0.5,0.398S232.059,82.125,232.33,82.125z"/>
		<path fill="#60DBE8" d="M239.715,78.271c-0.042,0.079-0.108,0.118-0.198,0.118c-0.053,0-0.114-0.02-0.182-0.059
			c-0.067-0.039-0.15-0.083-0.249-0.131c-0.098-0.048-0.214-0.092-0.35-0.133c-0.135-0.041-0.295-0.062-0.481-0.062
			c-0.16,0-0.305,0.021-0.433,0.062c-0.128,0.041-0.238,0.097-0.329,0.168c-0.091,0.071-0.161,0.154-0.208,0.249
			c-0.048,0.095-0.072,0.197-0.072,0.308c0,0.139,0.04,0.255,0.12,0.347c0.081,0.093,0.186,0.173,0.318,0.241
			c0.132,0.067,0.282,0.127,0.449,0.179c0.167,0.051,0.339,0.106,0.516,0.166c0.176,0.059,0.348,0.124,0.516,0.195
			s0.317,0.161,0.449,0.267c0.132,0.107,0.238,0.238,0.318,0.393c0.08,0.155,0.12,0.341,0.12,0.559c0,0.25-0.044,0.48-0.133,0.692
			c-0.089,0.212-0.221,0.396-0.396,0.551c-0.175,0.155-0.389,0.277-0.642,0.366c-0.253,0.089-0.545,0.134-0.876,0.134
			c-0.377,0-0.72-0.062-1.026-0.184c-0.307-0.123-0.567-0.281-0.78-0.473l0.224-0.364c0.029-0.046,0.063-0.082,0.102-0.107
			c0.04-0.025,0.091-0.037,0.155-0.037c0.064,0,0.132,0.025,0.203,0.075c0.071,0.05,0.158,0.105,0.259,0.166
			c0.102,0.061,0.225,0.116,0.369,0.166c0.144,0.05,0.325,0.075,0.542,0.075c0.185,0,0.347-0.024,0.486-0.072
			c0.139-0.048,0.254-0.113,0.347-0.195s0.161-0.177,0.206-0.283c0.045-0.107,0.067-0.221,0.067-0.342
			c0-0.149-0.04-0.273-0.12-0.372c-0.08-0.098-0.186-0.182-0.318-0.251s-0.283-0.13-0.452-0.182
			c-0.169-0.052-0.342-0.106-0.519-0.163s-0.349-0.122-0.519-0.195c-0.169-0.073-0.319-0.165-0.451-0.275s-0.238-0.247-0.318-0.409
			c-0.08-0.162-0.12-0.359-0.12-0.59c0-0.207,0.043-0.405,0.128-0.596c0.085-0.19,0.21-0.358,0.374-0.502
			c0.164-0.145,0.365-0.259,0.604-0.345s0.511-0.128,0.817-0.128c0.356,0,0.676,0.056,0.959,0.168s0.528,0.266,0.735,0.462
			L239.715,78.271z"/>
		<path fill="#60DBE8" d="M251.174,78.966c0,0.574-0.091,1.096-0.273,1.566c-0.182,0.47-0.438,0.873-0.77,1.208
			c-0.331,0.335-0.729,0.594-1.192,0.777c-0.463,0.184-0.976,0.275-1.539,0.275h-2.864v-7.659h2.864
			c0.563,0,1.076,0.092,1.539,0.275c0.463,0.184,0.861,0.443,1.192,0.78c0.332,0.336,0.588,0.74,0.77,1.21
			C251.083,77.871,251.174,78.393,251.174,78.966z M250.11,78.966c0-0.47-0.064-0.891-0.193-1.261
			c-0.128-0.371-0.31-0.684-0.545-0.941c-0.235-0.256-0.52-0.452-0.855-0.588c-0.335-0.135-0.708-0.203-1.117-0.203h-1.822v5.98
			h1.822c0.41,0,0.782-0.067,1.117-0.203c0.335-0.135,0.62-0.33,0.855-0.585c0.235-0.255,0.417-0.567,0.545-0.938
			C250.046,79.857,250.11,79.437,250.11,78.966z"/>
		<path fill="#60DBE8" d="M254.241,75.68c0,0.092-0.019,0.179-0.056,0.259s-0.087,0.152-0.149,0.214
			c-0.063,0.063-0.135,0.111-0.217,0.147s-0.169,0.054-0.262,0.054s-0.179-0.018-0.259-0.054s-0.151-0.084-0.214-0.147
			c-0.062-0.062-0.111-0.134-0.147-0.214s-0.053-0.167-0.053-0.259c0-0.093,0.018-0.181,0.053-0.265
			c0.036-0.084,0.085-0.157,0.147-0.219c0.063-0.063,0.134-0.111,0.214-0.147s0.167-0.053,0.259-0.053s0.18,0.018,0.262,0.053
			s0.154,0.084,0.217,0.147c0.062,0.063,0.112,0.135,0.149,0.219C254.223,75.499,254.241,75.587,254.241,75.68z M254.027,77.379
			v5.414h-0.951v-5.414H254.027z"/>
		<path fill="#60DBE8" d="M258.063,77.288c0.235,0,0.455,0.026,0.66,0.078c0.205,0.052,0.391,0.127,0.559,0.227h1.469v0.353
			c0,0.118-0.075,0.192-0.224,0.225l-0.615,0.085c0.121,0.232,0.182,0.49,0.182,0.775c0,0.264-0.051,0.503-0.152,0.719
			c-0.102,0.215-0.242,0.4-0.422,0.553c-0.18,0.153-0.394,0.271-0.641,0.353s-0.52,0.123-0.815,0.123
			c-0.253,0-0.492-0.03-0.716-0.091c-0.114,0.074-0.2,0.153-0.259,0.238c-0.059,0.084-0.088,0.167-0.088,0.249
			c0,0.133,0.051,0.233,0.155,0.301s0.241,0.117,0.412,0.146s0.365,0.044,0.583,0.044s0.439,0,0.666,0
			c0.226,0,0.448,0.02,0.665,0.06s0.412,0.104,0.583,0.195c0.171,0.09,0.308,0.215,0.411,0.374s0.155,0.364,0.155,0.617
			c0,0.234-0.058,0.461-0.174,0.682c-0.116,0.22-0.282,0.416-0.5,0.587c-0.217,0.171-0.482,0.309-0.796,0.411
			c-0.313,0.103-0.668,0.154-1.063,0.154s-0.742-0.039-1.04-0.118c-0.298-0.079-0.544-0.184-0.74-0.316
			c-0.196-0.132-0.343-0.284-0.441-0.457c-0.098-0.173-0.147-0.354-0.147-0.543c0-0.268,0.084-0.495,0.254-0.682
			c0.169-0.188,0.401-0.336,0.697-0.447c-0.153-0.071-0.275-0.167-0.366-0.286s-0.136-0.278-0.136-0.478
			c0-0.078,0.014-0.159,0.043-0.243c0.028-0.084,0.072-0.167,0.131-0.249c0.059-0.082,0.131-0.16,0.216-0.234
			s0.185-0.141,0.299-0.198c-0.267-0.149-0.477-0.348-0.628-0.596s-0.227-0.537-0.227-0.869c0-0.264,0.051-0.503,0.152-0.719
			c0.102-0.215,0.243-0.399,0.425-0.55s0.398-0.268,0.649-0.35C257.488,77.329,257.763,77.288,258.063,77.288z M259.751,83.067
			c0-0.138-0.038-0.249-0.112-0.332c-0.075-0.084-0.176-0.148-0.305-0.194s-0.276-0.079-0.444-0.101
			c-0.167-0.022-0.344-0.033-0.529-0.033c-0.186,0-0.374,0-0.566,0c-0.193,0-0.376-0.024-0.551-0.072
			c-0.203,0.096-0.368,0.214-0.494,0.354c-0.126,0.139-0.19,0.305-0.19,0.498c0,0.121,0.031,0.234,0.094,0.34
			c0.062,0.105,0.158,0.196,0.286,0.273c0.128,0.077,0.29,0.137,0.484,0.182c0.194,0.044,0.423,0.067,0.687,0.067
			c0.257,0,0.486-0.023,0.689-0.071s0.375-0.115,0.516-0.202c0.141-0.087,0.248-0.191,0.323-0.311
			C259.714,83.346,259.751,83.213,259.751,83.067z M258.063,80.147c0.192,0,0.362-0.027,0.51-0.08
			c0.148-0.054,0.272-0.128,0.372-0.225s0.174-0.211,0.225-0.345c0.05-0.134,0.075-0.281,0.075-0.441
			c0-0.332-0.101-0.595-0.302-0.791c-0.201-0.196-0.494-0.294-0.879-0.294c-0.381,0-0.673,0.098-0.874,0.294
			c-0.201,0.196-0.302,0.459-0.302,0.791c0,0.16,0.026,0.307,0.077,0.441c0.052,0.134,0.127,0.249,0.228,0.345
			c0.1,0.096,0.223,0.171,0.369,0.225C257.706,80.121,257.874,80.147,258.063,80.147z"/>
		<path fill="#60DBE8" d="M263.508,75.68c0,0.092-0.019,0.179-0.056,0.259c-0.037,0.08-0.087,0.152-0.149,0.214
			c-0.063,0.063-0.135,0.111-0.217,0.147s-0.169,0.054-0.262,0.054s-0.179-0.018-0.259-0.054s-0.151-0.084-0.214-0.147
			c-0.062-0.062-0.111-0.134-0.147-0.214s-0.053-0.167-0.053-0.259c0-0.093,0.018-0.181,0.053-0.265
			c0.036-0.084,0.085-0.157,0.147-0.219c0.063-0.063,0.134-0.111,0.214-0.147s0.167-0.053,0.259-0.053s0.18,0.018,0.262,0.053
			s0.154,0.084,0.217,0.147c0.062,0.063,0.112,0.135,0.149,0.219C263.49,75.499,263.508,75.587,263.508,75.68z M263.294,77.379
			v5.414h-0.951v-5.414H263.294z"/>
		<path fill="#60DBE8" d="M267.148,82.878c-0.428,0-0.756-0.119-0.986-0.358c-0.229-0.239-0.345-0.583-0.345-1.032v-3.313h-0.652
			c-0.057,0-0.105-0.017-0.145-0.051c-0.039-0.034-0.059-0.086-0.059-0.158v-0.379l0.887-0.112l0.219-1.673
			c0.007-0.053,0.03-0.097,0.069-0.131c0.039-0.034,0.089-0.051,0.149-0.051h0.481v1.865h1.55v0.689h-1.55v3.25
			c0,0.228,0.056,0.397,0.166,0.508s0.253,0.166,0.428,0.166c0.1,0,0.186-0.013,0.259-0.04c0.073-0.027,0.136-0.056,0.19-0.088
			c0.053-0.032,0.099-0.062,0.136-0.088c0.038-0.027,0.07-0.04,0.099-0.04c0.05,0,0.094,0.03,0.133,0.091l0.278,0.454
			c-0.164,0.153-0.361,0.273-0.593,0.361C267.632,82.834,267.394,82.878,267.148,82.878z"/>
		<path fill="#60DBE8" d="M274.004,82.793h-0.422c-0.093,0-0.167-0.014-0.225-0.043c-0.057-0.028-0.094-0.089-0.112-0.182
			l-0.107-0.502c-0.143,0.128-0.281,0.243-0.417,0.345c-0.135,0.102-0.278,0.187-0.427,0.257c-0.15,0.069-0.309,0.122-0.479,0.158
			c-0.169,0.035-0.357,0.053-0.564,0.053c-0.21,0-0.407-0.03-0.59-0.088c-0.184-0.059-0.343-0.147-0.479-0.266
			c-0.135-0.118-0.243-0.267-0.323-0.448s-0.12-0.394-0.12-0.641c0-0.215,0.059-0.421,0.176-0.62
			c0.118-0.198,0.308-0.375,0.569-0.528s0.604-0.28,1.029-0.378c0.424-0.098,0.942-0.147,1.555-0.147v-0.425
			c0-0.423-0.09-0.743-0.27-0.96c-0.18-0.217-0.446-0.326-0.799-0.326c-0.232,0-0.427,0.03-0.585,0.088
			c-0.158,0.059-0.296,0.125-0.411,0.198c-0.116,0.073-0.216,0.139-0.299,0.198c-0.084,0.059-0.167,0.088-0.249,0.088
			c-0.064,0-0.121-0.017-0.168-0.051c-0.048-0.034-0.086-0.076-0.115-0.126l-0.171-0.305c0.299-0.289,0.622-0.504,0.967-0.646
			s0.729-0.214,1.149-0.214c0.303,0,0.572,0.05,0.807,0.15c0.235,0.1,0.433,0.239,0.593,0.417c0.161,0.178,0.282,0.394,0.364,0.647
			c0.082,0.253,0.123,0.531,0.123,0.833V82.793z M271.536,82.21c0.167,0,0.32-0.017,0.459-0.051c0.139-0.034,0.27-0.082,0.393-0.145
			c0.123-0.062,0.241-0.138,0.353-0.227c0.112-0.089,0.222-0.19,0.329-0.305v-1.117c-0.438,0-0.811,0.028-1.117,0.083
			c-0.306,0.056-0.556,0.128-0.748,0.218c-0.192,0.09-0.333,0.195-0.419,0.317c-0.087,0.122-0.131,0.258-0.131,0.408
			c0,0.144,0.023,0.267,0.069,0.371s0.108,0.189,0.187,0.255c0.078,0.066,0.171,0.115,0.278,0.145
			C271.295,82.195,271.411,82.21,271.536,82.21z"/>
		<path fill="#60DBE8" d="M277.04,74.92v7.873h-0.951V74.92H277.04z"/>
	</g>
	<g>
		<g>
			<rect fill="#60DBE8" width="104.874" height="95.543"/>
		</g>
		<g>
			<path fill="#FFFFFF" d="M88.718,16l-0.254,58.195c0,10.53-1.707,11.805-4.372,12.805H12v-0.347c4,0,6.046-3.314,6.046-12.876
				L18.325,16H88.718z"/>
		</g>
		<g>
			<path fill="#4D4D4D" d="M73.956,51h-43c-0.819,0-1.484-0.68-1.484-1.5s0.665-1.5,1.484-1.5h43c0.82,0,1.484,0.68,1.484,1.5
				S74.776,51,73.956,51z"/>
		</g>
		<g>
			<path fill="#4D4D4D" d="M73.956,41h-43c-0.819,0-1.484-0.68-1.484-1.5s0.665-1.5,1.484-1.5h43c0.82,0,1.484,0.68,1.484,1.5
				S74.776,41,73.956,41z"/>
		</g>
		<g>
			<path fill="#4D4D4D" d="M73.956,72h-43c-0.819,0-1.484-0.68-1.484-1.5s0.665-1.5,1.484-1.5h43c0.82,0,1.484,0.68,1.484,1.5
				S74.776,72,73.956,72z"/>
		</g>
		<g>
			<path fill="#4D4D4D" d="M73.956,61h-43c-0.819,0-1.484-0.68-1.484-1.5s0.665-1.5,1.484-1.5h43c0.82,0,1.484,0.68,1.484,1.5
				S74.776,61,73.956,61z"/>
		</g>
		<g>
			<circle fill="#299AE5" cx="51.958" cy="26.541" r="4.69"/>
		</g>
		<g>
			<ellipse fill="#1E6E9B" cx="51.523" cy="26.541" rx="4.256" ry="4.246"/>
		</g>
		<g>
			<circle fill="#299AE5" cx="48.185" cy="26.541" r="2.957"/>
		</g>
	</g>
</g>
<g id="Capa_4" display="none">
</g>
<g id="Capa_5" display="none">
	<g display="inline">
		<circle fill="#4D4D4D" stroke="#60DBE8" stroke-width="2" stroke-miterlimit="10" cx="710.753" cy="212.849" r="15.575"/>
		<path fill="#4D4D4D" stroke="#60DBE8" stroke-width="2" stroke-miterlimit="10" d="M717.156,286.238h-13.093
			c-4.907,0-8.885-3.978-8.885-8.885v-35.078c0-4.907,3.978-8.885,8.885-8.885h13.093c4.907,0,8.885,3.978,8.885,8.885v35.078
			C726.041,282.26,722.063,286.238,717.156,286.238z"/>
		<circle fill="#4D4D4D" stroke="#60DBE8" stroke-width="2" stroke-miterlimit="10" cx="757.309" cy="212.849" r="15.575"/>
		<path fill="#4D4D4D" stroke="#60DBE8" stroke-width="2" stroke-miterlimit="10" d="M763.712,286.238h-13.093
			c-4.907,0-8.885-3.978-8.885-8.885v-35.078c0-4.907,3.978-8.885,8.885-8.885h13.093c4.907,0,8.885,3.978,8.885,8.885v35.078
			C772.597,282.26,768.619,286.238,763.712,286.238z"/>
		<circle fill="#4D4D4D" stroke="#60DBE8" stroke-width="2" stroke-miterlimit="10" cx="735.231" cy="226.181" r="15.575"/>
		<path fill="#4D4D4D" stroke="#60DBE8" stroke-width="2" stroke-miterlimit="10" d="M746.363,299.153h-22.265
			c-4.907,0-8.885-3.978-8.885-8.885l7.662-17.83c1.144-2.661,1.189-5.667,0.125-8.361l-3.345-8.47c0-4.907,3.978-8.885,8.885-8.885
			h13.093c4.907,0,8.885,3.978,8.885,8.885l-3.185,8.557c-0.984,2.645-0.912,5.566,0.203,8.159l7.712,17.946
			C755.248,295.175,751.271,299.153,746.363,299.153z"/>
	</g>
	<g display="inline">
		
			<path fill="#4D4D4D" stroke="#60DBE8" stroke-width="2" stroke-linecap="round" stroke-linejoin="round" stroke-miterlimit="10" d="
			M712.674,590.953c0,11.796,9.562,21.357,21.357,21.357s21.358-9.562,21.358-21.357c0-11.795-9.563-21.357-21.358-21.357
			s-21.357-9.563-21.357-21.357c0-11.796,9.562-21.358,21.357-21.358s21.358,9.562,21.358,21.358"/>
		
			<line fill="#4D4D4D" stroke="#60DBE8" stroke-width="2" stroke-linecap="round" stroke-linejoin="round" stroke-miterlimit="10" x1="734.031" y1="513.714" x2="734.031" y2="625.478"/>
	</g>
	<g display="inline">
		
			<path fill="#4D4D4D" stroke="#60DBE8" stroke-width="2" stroke-linecap="round" stroke-linejoin="round" stroke-miterlimit="10" d="
			M1179.307,535.29c0-6.097,4.942-11.039,11.039-11.039c6.098,0,11.039,4.942,11.039,11.039s-4.941,11.039-11.039,11.039v17.998"/>
		
			<polygon fill="#4D4D4D" stroke="#60DBE8" stroke-width="2" stroke-linecap="round" stroke-linejoin="round" stroke-miterlimit="10" points="
			1190.346,582.428 1144.384,570.178 1190.346,556.678 1236.309,570.178 		"/>
		<path fill="#4D4D4D" stroke="#60DBE8" stroke-width="2" stroke-miterlimit="10" d="M1190.346,572.629"/>
		
			<polyline fill="#4D4D4D" stroke="#60DBE8" stroke-width="2" stroke-linecap="round" stroke-linejoin="round" stroke-miterlimit="10" points="
			1236.309,619.803 1190.346,632.053 1144.384,619.803 		"/>
		
			<line fill="#4D4D4D" stroke="#60DBE8" stroke-width="2" stroke-miterlimit="10" x1="1144.384" y1="570.178" x2="1144.384" y2="620.428"/>
		
			<line fill="#4D4D4D" stroke="#60DBE8" stroke-width="2" stroke-miterlimit="10" x1="1190.346" y1="581.178" x2="1190.346" y2="631.428"/>
		
			<line fill="#4D4D4D" stroke="#60DBE8" stroke-width="2" stroke-miterlimit="10" x1="1236.309" y1="569.553" x2="1236.309" y2="619.803"/>
		<circle fill="#4D4D4D" stroke="#60DBE8" stroke-miterlimit="10" cx="1190.346" cy="570.013" r="2.617"/>
		
			<line fill="#4D4D4D" stroke="#60DBE8" stroke-width="2" stroke-linecap="round" stroke-linejoin="round" stroke-miterlimit="10" x1="1190.346" y1="564.327" x2="1190.346" y2="556.678"/>
	</g>
	<g display="inline">
		
			<polygon fill="#4D4D4D" stroke="#60DBE8" stroke-width="2" stroke-linecap="round" stroke-linejoin="round" stroke-miterlimit="10" points="
			230.624,868.641 246.254,872.829 234.812,884.271 223.37,895.714 219.181,880.083 214.993,864.453 		"/>
		<polygon fill="#60DBE8" points="269.15,874.855 285.332,874.855 277.241,888.869 269.15,902.884 261.059,888.869 252.968,874.855 
					"/>
		
			<polygon fill="#4D4D4D" stroke="#60DBE8" stroke-width="2" stroke-linecap="round" stroke-linejoin="round" stroke-miterlimit="10" points="
			306.671,868.641 322.302,864.453 318.114,880.083 313.926,895.714 302.483,884.271 291.041,872.829 		"/>
		
			<path fill="#4D4D4D" stroke="#60DBE8" stroke-width="2" stroke-linecap="round" stroke-linejoin="round" stroke-miterlimit="10" d="
			M202.942,858.04c7.24,3.26,16.68,7.14,26.98,10.41c0.02,0.01,0.03,0.01,0.05,0.02c5.25,1.681,10.73,3.19,16.25,4.391
			c3.87,0.85,7.76,1.529,11.62,2c3.83,0.479,7.62,0.739,11.31,0.739s7.47-0.26,11.28-0.739c3.59-0.44,7.2-1.07,10.8-1.841
			c6.91-1.47,13.73-3.46,20.14-5.64c0.02-0.01,0.04-0.01,0.06-0.02c8.78-2.99,16.78-6.341,23.09-9.23"/>
	</g>
	<g display="inline">
		<path fill="#4D4D4D" stroke="#60DBE8" stroke-width="2" stroke-miterlimit="10" d="M253.507,610.17l-19.638-19.639
			c-0.963-0.962-0.963-2.523,0-3.486l46.049-46.049c0.962-0.963,2.523-0.963,3.486,0l19.638,19.638c0.963,0.963,0.963,2.523,0,3.486
			l-46.049,46.05C256.031,611.133,254.47,611.133,253.507,610.17z"/>
		<path fill="#4D4D4D" stroke="#60DBE8" stroke-width="2" stroke-miterlimit="10" d="M301.433,554.211l-11.604-11.604
			c-3.182-3.181-5.73-5.79-2.549-8.971l3.306-3.306c3.181-3.181,8.339-3.181,11.521,0l11.604,11.604
			c3.181,3.182,3.181,8.339,0,11.521l-3.306,3.306C307.223,559.94,304.614,557.392,301.433,554.211z"/>
		<polygon fill="#4D4D4D" stroke="#60DBE8" stroke-width="2" stroke-miterlimit="10" points="240.732,603.307 251.911,614.486 
			236.64,618.578 221.369,622.67 225.461,607.398 229.553,592.128 		"/>
		
			<line fill="#4D4D4D" stroke="#60DBE8" stroke-width="2" stroke-miterlimit="10" x1="224.178" y1="612.189" x2="231.722" y2="619.733"/>
		
			<line fill="#4D4D4D" stroke="#60DBE8" stroke-width="2" stroke-miterlimit="10" x1="281.855" y1="552.543" x2="243.958" y2="590.441"/>
		
			<line fill="#4D4D4D" stroke="#60DBE8" stroke-width="2" stroke-miterlimit="10" x1="291.368" y1="562.056" x2="253.47" y2="599.953"/>
	</g>
	<g display="inline">
		<path fill="#4D4D4D" stroke="#60DBE8" stroke-width="2" stroke-miterlimit="10" d="M1183.266,211.355c0,1.38-0.18,2.72-0.52,3.99
			c-1.76,6.67-7.84,11.58-15.06,11.58c-8.601,0-15.57-6.97-15.57-15.57c0-0.16,0-0.32,0.01-0.47c0.25-8.38,7.12-15.11,15.561-15.11
			c3.12,0,6.029,0.92,8.46,2.51c0.18,0.11,0.359,0.23,0.529,0.36C1180.656,201.456,1183.266,206.105,1183.266,211.355z"/>
		<path fill="#4D4D4D" stroke="#60DBE8" stroke-width="2" stroke-miterlimit="10" d="M1176.146,198.286
			c-0.25,8.38-7.131,15.11-15.57,15.11c-3.12,0-6.02-0.92-8.45-2.51c0.25-8.38,7.12-15.11,15.561-15.11
			C1170.807,195.775,1173.716,196.695,1176.146,198.286z"/>
		<path fill="#4D4D4D" stroke="#60DBE8" stroke-width="2" stroke-miterlimit="10" d="M1183.266,211.355c0,1.38-0.18,2.72-0.52,3.99
			c-3.99-2.82-6.59-7.47-6.59-12.72c0-1.38,0.18-2.71,0.52-3.98C1180.656,201.456,1183.266,206.105,1183.266,211.355z"/>
		<path fill="#4D4D4D" stroke="#60DBE8" stroke-width="2" stroke-miterlimit="10" d="M1174.091,284.742h-13.093
			c-4.907,0-8.885-3.978-8.885-8.885V240.78c0-4.907,3.978-8.885,8.885-8.885h13.093c4.907,0,8.885,3.978,8.885,8.885v35.077
			C1182.976,280.764,1178.998,284.742,1174.091,284.742z"/>
		<path fill="#4D4D4D" stroke="#60DBE8" stroke-width="2" stroke-miterlimit="10" d="M1224.126,211.355c0,1.37-0.18,2.69-0.51,3.95
			c-1.74,6.69-7.83,11.62-15.06,11.62c-7.24,0-13.33-4.93-15.07-11.62c-0.33-1.26-0.51-2.58-0.51-3.95
			c0-8.43,6.699-15.3,15.069-15.57c0.17-0.01,0.341-0.01,0.511-0.01s0.34,0,0.51,0.01
			C1217.426,196.056,1224.126,202.925,1224.126,211.355z"/>
		<path fill="#4D4D4D" stroke="#60DBE8" stroke-width="2" stroke-miterlimit="10" d="M1208.557,199.746
			c0,8.43-6.7,15.29-15.07,15.56c-0.33-1.26-0.51-2.58-0.51-3.95c0-8.43,6.699-15.3,15.069-15.57
			C1208.376,197.045,1208.557,198.375,1208.557,199.746z"/>
		<path fill="#4D4D4D" stroke="#60DBE8" stroke-width="2" stroke-miterlimit="10" d="M1224.126,211.355c0,1.37-0.18,2.69-0.51,3.95
			c-8.36-0.27-15.06-7.13-15.06-15.56c0-1.37,0.18-2.7,0.51-3.96C1217.426,196.056,1224.126,202.925,1224.126,211.355z"/>
		<path fill="#4D4D4D" stroke="#60DBE8" stroke-width="2" stroke-miterlimit="10" d="M1219.686,284.326h-22.266
			c-4.906,0-8.885-3.978-8.885-8.885l7.663-17.83c1.144-2.662,1.188-5.667,0.124-8.361l-3.345-8.47c0-4.907,3.979-8.885,8.885-8.885
			h13.094c4.906,0,8.885,3.978,8.885,8.885l-3.185,8.557c-0.984,2.645-0.912,5.566,0.202,8.159l7.712,17.946
			C1228.57,280.348,1224.593,284.326,1219.686,284.326z"/>
		
			<line fill="#4D4D4D" stroke="#60DBE8" stroke-width="4" stroke-miterlimit="10" x1="1167.688" y1="231.895" x2="1167.688" y2="237.2"/>
		<g>
			<line fill="#4D4D4D" x1="1167.688" y1="239.368" x2="1167.688" y2="261.829"/>
			<polygon fill="#60DBE8" points="1168.688,239.368 1170.664,261.829 1164.712,261.829 1166.688,239.368 			"/>
		</g>
		
			<line fill="#4D4D4D" stroke="#60DBE8" stroke-width="4" stroke-miterlimit="10" x1="1208.553" y1="231.895" x2="1208.553" y2="237.2"/>
		<g>
			<line fill="#4D4D4D" x1="1208.553" y1="239.368" x2="1208.553" y2="261.829"/>
			<polygon fill="#60DBE8" points="1209.553,239.368 1211.529,261.829 1205.577,261.829 1207.553,239.368 			"/>
		</g>
		<polyline fill="#4D4D4D" stroke="#60DBE8" stroke-width="2" stroke-miterlimit="10" points="1223.616,215.306 1224.126,215.306 
			1224.126,227.525 1193.486,227.525 1193.486,215.306 		"/>
	</g>
	<g display="inline">
		<g>
			<path fill="#4D4D4D" stroke="#60DBE8" stroke-miterlimit="10" d="M270.808,246.65c-0.05,0.08-0.1,0.14-0.15,0.19
				c-0.04-0.05-0.09-0.1-0.14-0.17c0.06-0.01,0.13-0.02,0.19-0.02H270.808z"/>
		</g>
		<g>
			<path fill="#4D4D4D" stroke="#60DBE8" stroke-width="2" stroke-miterlimit="10" d="M270.658,186.98
				c-5.25,0-6.651,10.43-6.651,16.597c0,5.323,1.04,13.827,4.715,16.04l1.658,86.533c0.01,0.195,0.165,0.36,0.36,0.36
				c0.206,0.01,0.381-0.155,0.381-0.36l1.658-86.646c3.511-2.389,4.52-10.697,4.52-15.927
				C277.298,197.41,275.898,186.98,270.658,186.98z M270.813,215.735c-0.052,0.083-0.103,0.144-0.155,0.196
				c-0.041-0.052-0.092-0.103-0.144-0.175c-0.906-1.215-2.388-5.323-2.388-12.179c0-7.248,1.647-11.408,2.532-12.354
				c0.886,0.947,2.522,5.106,2.522,12.354C273.18,210.402,271.718,214.5,270.813,215.735z"/>
		</g>
		<g>
			<path fill="#4D4D4D" stroke="#60DBE8" stroke-width="2" stroke-miterlimit="10" d="M316.566,216.972
				c0.295-0.768,0.118-1.625-0.458-2.201l-13.854-13.854c-0.576-0.576-1.433-0.753-2.201-0.458c-0.753,0.295-1.263,1.012-1.3,1.832
				l-0.546,13.677l-73.299,76.149l76.149-73.298l13.677-0.547C315.555,218.235,316.271,217.725,316.566,216.972z M302.365,214.66
				l0.303-7.525l7.223,7.223L302.365,214.66z"/>
		</g>
		<g>
			
				<path fill="#4D4D4D" stroke="#60DBE8" stroke-width="2" stroke-linecap="round" stroke-linejoin="round" stroke-miterlimit="10" d="
				M251.781,201.902c6.117,6.116,6.958,15.542,2.518,22.571l59.249,59.249c1.563,1.563,1.563,4.094,0,5.657
				c-1.556,1.556-4.094,1.563-5.657,0l-59.255-59.255c-7.021,4.433-16.447,3.592-22.557-2.518
				c-3.691-3.691-5.622-8.803-5.282-14.022l7.99,0.523c-0.191,2.92,0.884,5.777,2.949,7.842c3.967,3.967,10.43,3.967,14.396,0
				c3.967-3.967,3.96-10.423-0.007-14.39c-2.065-2.065-4.921-3.14-7.842-2.949l-0.523-7.99
				C242.978,196.28,248.09,198.21,251.781,201.902z"/>
		</g>
	</g>
	
		<circle display="inline" fill="none" stroke="#60DBE8" stroke-width="2" stroke-miterlimit="10" cx="268.732" cy="880.473" r="69.472"/>
	<g display="inline">
		<g>
			<path fill="#4D4D4D" stroke="#60DBE8" stroke-width="2" stroke-miterlimit="10" d="M1024.589,824.531l-0.398,91.065
				c0,16.479-2.67,18.474-6.841,20.038H904.537v-0.543c6.259,0,9.461-5.186,9.461-20.149l0.436-90.411H1024.589z"/>
		</g>
		<g>
			<path fill="#60DBE8" d="M1001.488,879.301H934.2c-1.283,0-2.322-1.064-2.322-2.348c0-1.282,1.04-2.347,2.322-2.347h67.288
				c1.282,0,2.322,1.064,2.322,2.347C1003.811,878.236,1002.771,879.301,1001.488,879.301z"/>
		</g>
		<g>
			<path fill="#60DBE8" d="M1001.488,863.652H934.2c-1.283,0-2.322-1.064-2.322-2.348c0-1.282,1.04-2.347,2.322-2.347h67.288
				c1.282,0,2.322,1.064,2.322,2.347C1003.811,862.588,1002.771,863.652,1001.488,863.652z"/>
		</g>
		<g>
			<path fill="#60DBE8" d="M1001.488,912.162H934.2c-1.283,0-2.322-1.064-2.322-2.347c0-1.283,1.04-2.348,2.322-2.348h67.288
				c1.282,0,2.322,1.064,2.322,2.348C1003.811,911.098,1002.771,912.162,1001.488,912.162z"/>
		</g>
		<g>
			<path fill="#60DBE8" d="M1001.488,894.949H934.2c-1.283,0-2.322-1.064-2.322-2.348c0-1.282,1.04-2.347,2.322-2.347h67.288
				c1.282,0,2.322,1.064,2.322,2.347C1003.811,893.885,1002.771,894.949,1001.488,894.949z"/>
		</g>
		<g>
			<circle fill="#4D4D4D" stroke="#60DBE8" stroke-width="2" stroke-miterlimit="10" cx="967.064" cy="841.025" r="7.34"/>
		</g>
		<g>
			
				<ellipse fill="#4D4D4D" stroke="#60DBE8" stroke-width="2" stroke-miterlimit="10" cx="966.385" cy="841.025" rx="6.66" ry="6.645"/>
		</g>
		<g>
			<circle fill="#4D4D4D" stroke="#60DBE8" stroke-width="2" stroke-miterlimit="10" cx="961.161" cy="841.025" r="4.627"/>
		</g>
	</g>
</g>
</svg>
